<svg width="21" height="24" viewBox="0 0 21 24" fill="none" xmlns="http://www.w3.org/2000/svg">
<path fill-rule="evenodd" clip-rule="evenodd" d="M20.4881 0.540547C20.8159 0.886763 21 1.35627 21 1.84582C21 2.33537 20.8159 2.80488 20.4881 3.15109L11.7469 12.3822C11.4191 12.7283 10.9745 12.9227 10.5109 12.9227C10.0474 12.9227 9.60277 12.7283 9.27492 12.3822L0.533718 3.15109C0.215261 2.80289 0.0390479 2.33654 0.0430311 1.85246C0.0470143 1.36839 0.230875 0.905339 0.555013 0.563036C0.879152 0.220733 1.31763 0.0265681 1.77602 0.0223616C2.2344 0.0181552 2.67601 0.204244 3.00573 0.540547L10.5109 8.46635L18.0161 0.540547C18.344 0.194435 18.7886 0 19.2521 0C19.7157 0 20.1603 0.194435 20.4881 0.540547ZM20.4881 11.6178C20.8159 11.9641 21 12.4336 21 12.9231C21 13.4127 20.8159 13.8822 20.4881 14.2284L11.7469 23.4595C11.4191 23.8056 10.9745 24 10.5109 24C10.0474 24 9.60277 23.8056 9.27492 23.4595L0.533718 14.2284C0.366743 14.0581 0.233558 13.8544 0.141934 13.6291C0.0503106 13.4039 0.00208316 13.1616 6.60084e-05 12.9165C-0.00195114 12.6713 0.042282 12.4282 0.130185 12.2013C0.218088 11.9744 0.3479 11.7683 0.512048 11.5949C0.676195 11.4216 0.871389 11.2845 1.08624 11.1917C1.30109 11.0989 1.5313 11.0521 1.76343 11.0543C1.99556 11.0564 2.22497 11.1073 2.43826 11.2041C2.65155 11.3009 2.84446 11.4415 3.00573 11.6178L10.5109 19.5436L18.0161 11.6178C18.344 11.2717 18.7886 11.0773 19.2521 11.0773C19.7157 11.0773 20.1603 11.2717 20.4881 11.6178Z" fill="#E88873"/>
</svg>
