<svg width="29" height="25" viewBox="0 0 29 25" fill="none" xmlns="http://www.w3.org/2000/svg">
<path fill-rule="evenodd" clip-rule="evenodd" d="M25.5 0.125H3.5C1.9875 0.125 0.75 1.3625 0.75 2.875V22.125C0.75 23.6375 1.9875 24.875 3.5 24.875H25.5C27.0125 24.875 28.25 23.6375 28.25 22.125V2.875C28.25 1.3625 27.0125 0.125 25.5 0.125ZM11.75 19.375H4.875V16.625H11.75V19.375ZM11.75 13.875H4.875V11.125H11.75V13.875ZM11.75 8.375H4.875V5.625H11.75V8.375ZM18.3775 16.625L14.5 12.72L16.4387 10.7812L18.3775 12.7338L22.7362 8.375L24.6887 10.3275L18.3775 16.625Z" fill="#A37774"/>
</svg>
